<?xml version="1.0" standalone="no"?>
<!DOCTYPE svg PUBLIC "-//W3C//DTD SVG 20010904//EN"
 "http://www.w3.org/TR/2001/REC-SVG-20010904/DTD/svg10.dtd">
<svg version="1.0" xmlns="http://www.w3.org/2000/svg"
 width="1024.000000pt" height="1024.000000pt" viewBox="0 0 1024.000000 1024.000000"
 preserveAspectRatio="xMidYMid meet">

<g transform="translate(0.000000,1024.000000) scale(0.100000,-0.100000)"
fill="#000000" stroke="none">
<path d="M4303 8930 c-140 -15 -412 -77 -398 -91 3 -3 -9 -6 -27 -6 -18 0 -34
-5 -36 -11 -2 -7 -8 -10 -12 -7 -13 8 -82 -23 -76 -34 3 -5 -4 -7 -16 -4 l-23
4 21 -13 c24 -14 14 -32 -18 -34 -10 0 -28 -2 -40 -3 -22 -2 -22 -3 -3 -11 18
-7 18 -8 3 -14 -52 -18 -89 -41 -81 -50 4 -4 -1 -4 -12 -1 -19 6 -19 6 -2 -8
22 -18 24 -72 2 -63 -21 8 -19 3 15 -35 49 -55 54 -66 28 -80 l-21 -11 23 -13
c15 -8 19 -15 11 -19 -6 -4 -11 -2 -11 3 0 6 -5 11 -11 11 -6 0 -9 -6 -6 -14
6 -16 -16 -40 -26 -29 -4 3 -7 1 -7 -5 0 -16 -32 -15 -50 1 -8 6 -7 3 3 -9 17
-21 17 -22 -15 -46 -56 -42 -61 -43 -53 -17 7 22 6 22 -9 10 -12 -10 -14 -17
-6 -25 16 -16 12 -30 -5 -16 -13 11 -14 10 -9 -4 3 -9 8 -16 10 -16 2 0 38 27
80 60 208 166 487 278 784 315 135 16 274 24 257 13 -7 -4 8 -8 33 -8 53 0
253 -33 363 -59 83 -20 97 -19 45 4 -18 8 -25 14 -16 15 9 0 25 3 35 6 15 5
15 4 3 -5 -13 -9 -11 -11 7 -11 12 0 24 6 26 13 4 9 8 8 16 -3 10 -13 12 -13
20 0 7 10 24 13 55 11 45 -2 64 13 29 22 -10 2 8 3 40 0 l57 -4 0 30 c0 21 5
31 15 31 8 0 15 -5 15 -11 0 -8 13 -9 39 -5 25 4 42 2 47 -5 3 -6 17 -9 30 -6
14 2 21 0 17 -6 -3 -6 -1 -7 5 -3 7 4 20 3 29 -3 14 -8 9 -9 -19 -6 -20 3 -40
0 -43 -5 -3 -6 14 -8 45 -6 28 1 53 -1 56 -5 2 -5 11 -6 19 -2 8 3 15 0 15 -6
0 -6 5 -11 10 -11 6 0 10 4 10 8 0 12 -51 36 -69 33 -8 -1 -10 2 -5 10 4 7 3
10 -4 6 -15 -10 -43 3 -35 16 3 5 1 7 -4 4 -6 -4 -16 0 -23 8 -7 8 -18 15 -24
15 -6 0 0 -9 14 -20 28 -22 23 -25 -14 -9 -13 6 -22 17 -20 24 11 28 -284 134
-497 179 -206 43 -403 55 -586 36z m995 -188 c-10 -2 -18 -8 -18 -13 0 -5 -5
-9 -11 -9 -8 0 -9 4 0 13 6 8 8 16 5 20 -3 3 5 3 18 -1 18 -5 19 -7 6 -10z
m-38 4 c0 -2 -9 -6 -20 -9 -11 -3 -18 -1 -14 4 5 9 34 13 34 5z m75 -16 c-3
-5 -11 -10 -16 -10 -6 0 -7 5 -4 10 3 6 11 10 16 10 6 0 7 -4 4 -10z m-908
-56 c-3 -3 -12 -4 -19 -1 -8 3 -5 6 6 6 11 1 17 -2 13 -5z m568 -45 c-16 -4
-33 -5 -37 -1 -4 4 10 8 30 9 37 1 37 1 7 -8z m-1190 -78 c3 -5 2 -12 -3 -15
-5 -3 -9 1 -9 9 0 17 3 19 12 6z m-5 -36 c0 -1 -8 -5 -18 -7 -11 -3 -19 0 -19
7 0 7 8 10 19 7 10 -2 18 -6 18 -7z m-123 -62 c-11 -11 -20 -12 -32 -5 -16 8
-15 11 11 24 32 15 45 4 21 -19z"/>
<path d="M3660 8460 c-9 -6 -10 -10 -3 -10 6 0 15 5 18 10 8 12 4 12 -15 0z"/>
<path d="M3691 8757 c-6 -6 -11 -8 -11 -4 0 8 -99 -42 -117 -59 -10 -10 -9
-13 3 -18 8 -3 12 -2 9 4 -3 6 2 10 11 10 10 0 14 3 11 6 -10 10 63 46 103 51
43 6 47 9 21 16 -11 2 -24 0 -30 -6z"/>
<path d="M5360 8670 c0 -7 24 -20 36 -20 13 0 1 19 -16 23 -11 3 -20 2 -20 -3z"/>
<path d="M3505 8660 c3 -5 8 -10 11 -10 2 0 4 5 4 10 0 6 -5 10 -11 10 -5 0
-7 -4 -4 -10z"/>
<path d="M3403 8593 c0 -8 6 -9 19 -2 10 5 18 11 18 12 0 2 -8 3 -18 3 -10 0
-19 -6 -19 -13z"/>
<path d="M5550 8596 c14 -8 31 -15 39 -16 16 0 7 13 -12 16 -7 1 -21 5 -32 9
-14 4 -12 2 5 -9z"/>
<path d="M5617 8600 c10 -11 9 -16 -5 -27 -15 -13 -15 -13 5 -4 28 14 36 14
27 -1 -4 -7 -3 -8 4 -4 16 10 16 11 -15 31 -16 10 -23 12 -16 5z"/>
<path d="M5520 8581 c0 -5 7 -12 16 -15 14 -5 15 -4 4 9 -14 17 -20 19 -20 6z"/>
<path d="M5056 8571 c-3 -4 9 -12 27 -18 30 -9 33 -8 35 11 1 17 -1 18 -8 6
-8 -12 -13 -13 -29 -3 -11 7 -22 9 -25 4z"/>
<path d="M5202 8536 c56 -21 81 -36 61 -36 -6 0 -27 7 -46 15 -20 8 -42 15
-49 15 -15 0 177 -85 213 -94 13 -3 18 -3 11 0 -6 3 -10 9 -7 14 3 4 -4 6 -15
3 -14 -4 -20 -1 -18 8 2 9 -5 13 -20 12 -27 -3 -65 14 -57 26 7 12 -15 28 -47
36 -16 4 -26 10 -24 14 2 3 -10 7 -27 8 -26 1 -22 -3 25 -21z"/>
<path d="M5250 8550 c8 -5 20 -10 25 -10 6 0 3 5 -5 10 -8 5 -19 10 -25 10 -5
0 -3 -5 5 -10z"/>
<path d="M5699 8545 c-1 -3 -3 -9 -4 -15 -1 -5 -3 -11 -5 -12 -1 -2 -3 -11 -5
-20 -2 -14 0 -16 14 -8 10 5 24 17 32 27 13 17 13 17 -7 1 -24 -21 -39 -24
-27 -5 9 14 13 37 7 37 -2 0 -5 -2 -5 -5z"/>
<path d="M5746 8511 c-3 -5 4 -17 16 -27 12 -11 18 -13 14 -6 -10 17 4 15 26
-5 10 -9 18 -12 18 -7 0 14 -68 55 -74 45z"/>
<path d="M3330 8496 c0 -2 7 -7 16 -10 8 -3 12 -2 9 4 -6 10 -25 14 -25 6z"/>
<path d="M3570 8450 c12 -22 25 -26 35 -11 3 6 -3 15 -14 20 -28 16 -33 14
-21 -9z"/>
<path d="M5849 8443 c16 -13 20 -22 12 -26 -6 -3 -7 -5 0 -3 19 3 15 18 -11
34 l-25 14 24 -19z"/>
<path d="M3169 8413 c-13 -16 -12 -17 4 -4 9 7 17 15 17 17 0 8 -8 3 -21 -13z"/>
<path d="M5411 8417 c2 -1 13 -9 24 -17 19 -14 19 -14 6 3 -7 9 -18 17 -24 17
-6 0 -8 -1 -6 -3z"/>
<path d="M5924 8386 c1 -8 5 -18 8 -22 4 -3 5 1 4 10 -1 8 -5 18 -8 22 -4 3
-5 -1 -4 -10z"/>
<path d="M3099 8333 c-13 -16 -12 -17 4 -4 9 7 17 15 17 17 0 8 -8 3 -21 -13z"/>
<path d="M5580 8316 c0 -2 8 -10 18 -17 15 -13 16 -12 3 4 -13 16 -21 21 -21
13z"/>
<path d="M5629 8293 c-13 -17 -13 -17 6 -3 11 8 22 16 24 17 2 2 0 3 -6 3 -6
0 -17 -8 -24 -17z"/>
<path d="M3383 8283 c-16 -6 -17 -43 -2 -43 8 0 8 -5 -1 -15 -8 -9 -8 -15 -2
-15 12 0 54 51 48 58 -8 7 -27 -9 -21 -19 4 -5 2 -9 -3 -9 -17 0 -21 13 -11
31 5 11 8 19 7 18 -2 0 -9 -3 -15 -6z"/>
<path d="M5666 8261 c-3 -5 2 -15 12 -22 15 -12 16 -12 5 2 -7 9 -10 19 -6 22
3 4 4 7 0 7 -3 0 -8 -4 -11 -9z"/>
<path d="M5700 8226 c0 -2 8 -10 18 -17 15 -13 16 -12 3 4 -13 16 -21 21 -21
13z"/>
<path d="M3310 8185 c0 -14 2 -25 4 -25 2 0 6 11 8 25 3 14 1 25 -3 25 -5 0
-9 -11 -9 -25z"/>
<path d="M3336 8185 c-3 -8 -1 -15 4 -15 6 0 10 7 10 15 0 8 -2 15 -4 15 -2 0
-6 -7 -10 -15z"/>
<path d="M3291 8174 c0 -11 3 -14 6 -6 3 7 2 16 -1 19 -3 4 -6 -2 -5 -13z"/>
<path d="M3325 8150 c-3 -5 -12 -7 -20 -3 -11 4 -14 0 -9 -13 4 -11 4 -16 -1
-12 -14 13 -47 -12 -42 -32 5 -21 -14 -42 -33 -38 -7 2 -15 -4 -17 -12 -4 -13
-3 -13 6 0 6 8 11 10 11 4 0 -6 -3 -14 -7 -18 -5 -4 -8 -13 -8 -19 -1 -7 -6
-11 -13 -9 -12 2 -16 -10 -13 -37 2 -7 -3 -10 -9 -6 -6 4 -18 -1 -26 -11 -15
-18 -15 -18 -9 1 5 15 3 17 -6 8 -21 -21 1 -36 24 -16 24 21 24 22 -24 -87
-19 -41 -40 -80 -49 -87 -10 -9 -11 -12 -2 -13 6 0 12 -4 12 -10 0 -6 -3 -9
-7 -9 -19 3 -27 -2 -16 -9 9 -6 8 -18 -4 -52 -11 -34 -16 -91 -17 -227 -1
-101 1 -178 5 -172 3 6 9 -8 13 -30 3 -23 11 -41 17 -41 6 0 8 8 5 18 -14 46
-28 246 -22 317 17 209 101 417 228 568 27 31 47 57 44 57 -3 0 -7 -4 -11 -10z
m-268 -822 c-3 -7 -5 -2 -5 12 0 14 2 19 5 13 2 -7 2 -19 0 -25z"/>
<path d="M5810 8136 c0 -2 8 -10 18 -17 15 -13 16 -12 3 4 -13 16 -21 21 -21
13z"/>
<path d="M3126 7988 c3 -5 9 -6 14 -3 4 3 10 0 12 -7 3 -8 6 -7 10 3 4 11 -1
15 -17 15 -13 0 -21 -4 -19 -8z"/>
<path d="M4260 7845 c-47 -8 -91 -14 -99 -15 -11 0 -11 -3 0 -17 13 -15 12
-15 -7 -3 -19 11 -36 8 -132 -25 -65 -22 -109 -42 -105 -48 3 -6 1 -7 -6 -3
-11 7 -103 -30 -149 -60 -17 -11 -20 -19 -13 -28 7 -8 6 -16 -1 -26 -8 -13 -9
-12 -5 2 3 9 -1 19 -9 22 -10 4 -12 2 -8 -6 5 -8 2 -9 -10 -5 -10 4 -15 3 -11
-3 3 -6 -1 -10 -11 -10 -26 0 -186 -139 -180 -157 3 -8 1 -11 -4 -8 -13 8
-102 -75 -96 -89 2 -6 10 -10 17 -8 8 2 10 0 6 -4 -11 -11 -38 -14 -31 -3 14
23 -14 4 -40 -27 -24 -29 -26 -37 -15 -52 11 -14 11 -15 0 -5 -10 8 -18 7 -33
-5 -22 -19 -47 -59 -30 -48 6 3 13 2 16 -3 4 -5 -2 -8 -11 -6 -22 3 -55 -24
-46 -38 3 -6 1 -7 -5 -3 -7 4 -22 -3 -34 -15 -13 -12 -17 -19 -10 -14 8 4 2
-12 -13 -35 -19 -29 -23 -45 -16 -50 7 -4 -2 -7 -19 -7 -29 0 -30 1 -13 20 10
11 13 17 6 14 -6 -4 -13 0 -16 10 -3 12 -5 10 -6 -7 0 -15 -7 -32 -13 -38 -10
-10 -10 -15 2 -23 12 -8 11 -10 -5 -8 -41 3 -44 0 -40 -37 6 -40 -9 -74 -30
-74 -8 0 -15 -5 -15 -11 0 -6 10 -8 23 -5 12 3 16 3 10 0 -7 -3 -13 -17 -13
-30 0 -20 5 -24 30 -24 19 0 30 -5 30 -14 0 -8 6 -16 13 -19 10 -4 13 2 9 20
-3 18 -1 24 7 19 6 -4 11 -14 11 -22 0 -8 4 -13 9 -9 5 3 13 -5 17 -17 6 -20
8 -20 19 -5 13 18 51 24 40 7 -4 -6 -12 -7 -18 -3 -7 3 -4 -3 7 -15 18 -21 18
-21 -7 -27 -14 -4 -28 -13 -31 -21 -4 -10 -16 -13 -38 -10 -18 3 -28 3 -21 0
14 -6 6 -31 -18 -55 -16 -16 -19 -16 -40 -1 -21 14 -22 14 -16 -2 4 -10 7 -19
7 -22 0 -2 8 -1 18 2 14 5 14 4 2 -4 -10 -8 -19 -7 -29 1 -12 9 -13 9 -7 0 4
-7 2 -13 -3 -13 -6 0 -11 5 -11 12 0 6 -3 9 -6 5 -4 -3 -4 -14 0 -23 5 -13 9
-14 21 -4 8 7 15 9 15 5 0 -11 -48 -54 -54 -49 -3 2 -4 1 -1 -3 3 -3 0 -12 -6
-19 -6 -8 -7 -14 0 -18 6 -4 18 6 28 21 46 71 172 179 288 245 120 68 341 126
440 114 77 -9 82 -12 101 -69 21 -66 33 -94 105 -244 48 -100 62 -121 76 -117
14 5 15 4 4 -4 -16 -11 -13 -17 83 -174 32 -54 63 -95 67 -92 5 3 6 -1 4 -8
-3 -8 2 -22 11 -33 14 -18 15 -18 10 -2 -4 11 -2 16 5 12 5 -4 8 -12 6 -18 -5
-14 23 -67 35 -67 4 0 8 -6 8 -13 0 -19 35 -49 45 -40 4 5 5 2 1 -4 -8 -15
144 -218 153 -204 4 6 13 1 20 -12 13 -20 13 -21 -2 -8 -30 24 -18 -4 14 -35
26 -23 29 -25 20 -7 -14 27 -14 33 -1 33 6 0 10 -7 10 -15 0 -8 4 -15 9 -15 5
0 7 9 4 20 -3 11 0 20 6 20 6 0 11 -7 11 -15 0 -8 5 -15 10 -15 7 0 7 6 1 18
-6 11 -9 28 -8 40 1 16 5 19 19 11 19 -10 24 -29 8 -29 -5 0 -10 5 -10 12 0 6
-2 9 -5 6 -13 -12 8 -38 26 -33 11 4 19 2 19 -4 0 -6 6 -11 13 -11 7 0 31 -19
53 -42 41 -45 135 -127 161 -142 14 -7 36 -25 77 -61 25 -21 76 -55 84 -55 4
0 17 -8 28 -18 45 -42 394 -195 410 -180 2 3 -17 13 -43 23 -57 21 -95 45 -73
45 8 0 2 7 -14 15 -15 8 -40 13 -55 10 -14 -3 -20 -2 -13 1 17 8 15 24 -3 24
-8 0 -15 -4 -15 -10 0 -5 -5 -10 -11 -10 -6 0 -9 6 -6 14 4 10 -23 31 -86 67
-135 77 -304 196 -315 222 -2 4 -10 7 -17 7 -7 0 -15 3 -17 8 -1 4 -25 25 -52
47 -59 47 -171 159 -241 240 -27 32 -59 67 -70 78 -20 19 -20 19 2 8 12 -6 30
-8 40 -4 15 6 16 4 6 -9 -16 -18 -5 -32 13 -17 10 9 15 7 20 -5 7 -17 34 -22
34 -6 0 6 26 10 59 10 44 0 60 4 65 16 9 22 8 23 -16 18 -13 -2 -17 -2 -10 2
6 3 12 10 12 15 0 5 -6 9 -12 9 -14 1 -54 50 -41 50 5 0 29 -20 53 -45 24 -25
39 -45 32 -45 -20 0 -14 -21 8 -27 22 -6 27 -23 8 -23 -7 0 -5 -5 5 -11 14 -8
22 -8 30 1 9 8 7 10 -8 5 -15 -5 -17 -5 -6 3 10 7 21 7 33 1 22 -12 24 -21 3
-13 -8 4 -15 1 -15 -6 0 -6 8 -10 18 -8 10 2 32 -13 54 -37 20 -22 36 -33 35
-25 -2 8 -61 74 -133 145 -71 72 -145 148 -163 170 l-32 40 20 -36 c13 -22 19
-44 14 -55 -5 -14 -3 -16 11 -11 10 4 16 2 15 -6 -3 -18 12 -50 30 -64 9 -6
12 -15 8 -20 -5 -4 -13 0 -18 10 -6 10 -23 31 -38 46 -21 21 -27 36 -24 55 3
16 -3 36 -18 57 -13 18 -18 29 -11 25 7 -4 12 -3 12 2 0 11 -50 58 -57 54 -2
-2 -8 0 -11 4 -4 4 -1 4 7 -1 9 -5 12 -3 9 6 -3 8 -11 13 -17 11 -7 -1 -10 2
-7 7 4 5 -8 30 -26 55 -23 34 -35 43 -44 35 -8 -7 -14 -6 -20 2 -4 7 -3 9 4 5
29 -18 16 21 -34 100 -57 92 -175 327 -235 471 -19 47 -39 81 -45 79 -7 -3
-10 3 -6 16 4 16 10 18 31 13 14 -3 67 -15 116 -25 50 -10 116 -26 148 -34 65
-18 84 -20 47 -5 -25 10 -25 11 14 24 29 10 44 11 62 3 18 -8 28 -8 36 0 8 8
6 9 -9 6 -25 -7 -38 29 -17 47 8 6 11 15 8 20 -3 5 2 6 10 3 8 -3 16 -17 18
-31 l3 -26 35 33 c19 17 36 27 38 21 5 -16 22 -14 22 3 0 15 27 29 40 21 4 -3
26 2 49 10 36 12 45 12 73 -1 30 -14 31 -14 6 -9 -21 4 -28 1 -28 -10 0 -8 5
-15 10 -15 6 0 10 -7 10 -15 0 -8 9 -15 20 -15 11 0 20 5 20 10 0 6 7 10 15
10 8 0 14 -5 13 -11 -4 -18 16 -21 36 -6 17 13 8 20 -105 75 -193 95 -281 126
-489 174 -106 24 -160 31 -252 32 -64 0 -114 4 -110 7 13 12 194 80 243 91 34
8 46 14 37 21 -9 6 -8 7 5 3 10 -3 57 1 104 9 147 26 301 20 538 -21 22 -4 37
-3 33 1 -4 4 -18 9 -30 10 -52 5 -54 6 -33 15 14 6 7 8 -25 5 -33 -3 -38 -2
-20 4 14 4 24 13 22 20 -1 7 2 19 8 25 5 7 7 15 4 19 -3 3 3 3 15 0 12 -3 28
0 36 7 18 15 20 47 3 53 -10 4 -10 7 0 18 19 20 15 35 -14 47 -24 12 -25 32
-1 32 8 0 7 -4 -2 -9 -11 -7 -4 -12 27 -21 31 -8 42 -16 42 -30 0 -28 15 -32
41 -12 24 20 19 42 -9 42 -12 0 -13 3 -4 12 8 8 15 8 26 -2 10 -8 29 -10 53
-6 21 4 33 3 26 -1 -7 -5 6 -9 30 -9 l42 -1 -40 14 c-22 8 -103 28 -180 45
-122 26 -165 30 -330 34 -133 2 -215 -1 -275 -11z m630 -45 c11 -7 5 -8 -20
-4 -43 8 -51 14 -19 14 13 0 31 -5 39 -10z m-16 -19 c3 -4 -6 -6 -19 -3 -14 2
-25 6 -25 8 0 8 39 4 44 -5z m-101 -18 c-7 -2 -19 -2 -25 0 -7 3 -2 5 12 5 14
0 19 -2 13 -5z m-118 -173 c3 -5 -1 -10 -10 -10 -9 0 -13 5 -10 10 3 6 8 10
10 10 2 0 7 -4 10 -10z m78 3 c-7 -2 -21 -2 -30 0 -10 3 -4 5 12 5 17 0 24 -2
18 -5z m-1155 -87 c-7 -8 -15 -12 -17 -11 -5 6 10 25 20 25 5 0 4 -6 -3 -14z
m-63 -76 c4 -6 -1 -7 -11 -3 -14 5 -16 3 -11 -12 6 -15 5 -16 -8 -5 -13 11
-13 15 -3 21 17 11 26 11 33 -1z m-104 -127 l24 -28 -26 23 c-14 12 -29 19
-34 15 -4 -5 -5 -2 -1 5 9 16 9 16 37 -15z m20 10 c13 -16 12 -17 -3 -4 -10 7
-18 15 -18 17 0 8 8 3 21 -13z m1089 2 c0 -1 -8 -5 -18 -7 -11 -3 -19 0 -19 7
0 7 8 10 19 7 10 -2 18 -6 18 -7z m-53 -11 c-3 -3 -12 -4 -19 -1 -8 3 -5 6 6
6 11 1 17 -2 13 -5z m141 -35 c11 -17 16 -18 28 -8 12 10 13 9 8 -5 -5 -12
-14 -16 -28 -12 -11 3 -24 6 -28 6 -10 0 -10 40 0 40 4 0 13 -9 20 -21z m77
-29 c13 -6 15 -9 5 -9 -8 0 -22 4 -30 9 -18 12 -2 12 25 0z m-105 -10 c0 -5
-4 -10 -10 -10 -5 0 -10 5 -10 10 0 6 5 10 10 10 6 0 10 -4 10 -10z m-845 -40
c-11 -4 -48 -16 -82 -25 -34 -10 -60 -22 -57 -26 3 -5 -1 -6 -9 -4 -7 3 -30
-1 -50 -10 -46 -19 -71 -19 -35 0 42 23 201 75 228 74 23 0 23 -1 5 -9z m418
-7 c-7 -2 -19 -2 -25 0 -7 3 -2 5 12 5 14 0 19 -2 13 -5z m682 -24 c-4 -5 -11
-9 -17 -9 -6 0 -8 3 -5 7 4 3 1 13 -6 21 -10 13 -9 14 11 3 12 -7 20 -16 17
-22z m-692 -16 c-13 -2 -33 -2 -45 0 -13 2 -3 4 22 4 25 0 35 -2 23 -4z
m-1030 -180 c-7 -2 -19 -2 -25 0 -7 3 -2 5 12 5 14 0 19 -2 13 -5z m652 -43
c3 -6 -1 -7 -9 -4 -18 7 -21 14 -7 14 6 0 13 -4 16 -10z m65 -10 c8 -5 11 -10
5 -10 -5 0 -17 5 -25 10 -8 5 -10 10 -5 10 6 0 17 -5 25 -10z m-520 -44 c0 -2
-7 -7 -16 -10 -8 -3 -12 -2 -9 4 6 10 25 14 25 6z m15 -46 c-33 -22 -66 -40
-72 -40 -7 0 -13 -5 -13 -11 0 -5 -5 -7 -12 -3 -7 5 3 14 29 25 40 17 76 50
38 35 -15 -5 -16 -4 -5 9 10 12 15 13 21 4 6 -10 13 -9 31 4 13 9 28 16 33 16
6 1 -17 -17 -50 -39z m566 -23 c-10 -9 -11 -8 -5 6 3 10 9 15 12 12 3 -3 0
-11 -7 -18z m-749 -109 c-7 -7 -12 -8 -12 -2 0 14 12 26 19 19 2 -3 -1 -11 -7
-17z m1064 -26 c-18 -16 -18 -16 -6 6 6 13 14 21 18 18 3 -4 -2 -14 -12 -24z
m-248 -47 c-3 -3 -9 2 -12 12 -6 14 -5 15 5 6 7 -7 10 -15 7 -18z m342 -88 c0
-5 -4 -5 -10 -2 -5 3 -10 14 -10 23 0 15 2 15 10 2 5 -8 10 -19 10 -23z m66
-100 c4 -3 -3 -4 -16 -2 -17 3 -20 1 -15 -13 5 -13 3 -14 -6 -5 -6 6 -8 16 -5
21 6 11 31 10 42 -1z m-151 -213 c9 -15 12 -23 6 -20 -11 7 -35 46 -28 46 3 0
12 -12 22 -26z m290 -14 c-12 -19 -22 -10 -17 16 4 22 6 24 14 10 5 -9 6 -21
3 -26z m-180 -40 c3 -5 1 -10 -4 -10 -6 0 -11 5 -11 10 0 6 2 10 4 10 3 0 8
-4 11 -10z m238 -60 c6 -23 -17 -27 -43 -9 -13 9 -12 10 2 5 10 -3 17 -2 17 2
-6 36 15 38 24 2z m-276 -22 c-3 -8 -6 -5 -6 6 -1 11 2 17 5 13 3 -3 4 -12 1
-19z m409 -23 c17 -16 14 -18 -10 -9 -9 3 -16 10 -16 15 0 13 9 11 26 -6z
m-302 -101 c3 -8 2 -12 -4 -9 -6 3 -10 10 -10 16 0 14 7 11 14 -7z m140 -129
c-7 -17 -30 -20 -39 -6 -3 5 5 12 17 14 13 2 24 5 25 6 1 0 0 -6 -3 -14z m763
-461 c-3 -3 -12 -4 -19 -1 -8 3 -5 6 6 6 11 1 17 -2 13 -5z"/>
<path d="M3052 7760 c0 -14 2 -19 5 -12 2 6 2 18 0 25 -3 6 -5 1 -5 -13z"/>
<path d="M4967 7746 c-4 -10 -1 -13 9 -9 15 6 19 23 5 23 -5 0 -11 -7 -14 -14z"/>
<path d="M5100 7750 c0 -5 7 -10 16 -10 8 0 12 5 9 10 -3 6 -10 10 -16 10 -5
0 -9 -4 -9 -10z"/>
<path d="M5155 7730 c16 -7 17 -9 3 -9 -9 -1 -20 -5 -23 -11 -4 -6 6 -7 26 -3
26 5 31 3 24 -8 -6 -11 -5 -11 5 -2 7 6 18 10 24 9 6 -2 8 -1 4 1 -4 3 -10 4
-13 3 -3 0 -13 6 -21 15 -9 8 -23 15 -32 14 -14 0 -13 -2 3 -9z"/>
<path d="M5248 7688 c5 -5 16 -8 23 -6 8 3 3 7 -10 11 -17 4 -21 3 -13 -5z"/>
<path d="M5295 7650 c-3 -5 -2 -10 4 -10 5 0 13 5 16 10 3 6 2 10 -4 10 -5 0
-13 -4 -16 -10z"/>
<path d="M4788 7593 c6 -2 18 -2 25 0 6 3 1 5 -13 5 -14 0 -19 -2 -12 -5z"/>
<path d="M4908 7583 c7 -3 16 -2 19 1 4 3 -2 6 -13 5 -11 0 -14 -3 -6 -6z"/>
<path d="M4828 7573 c12 -2 30 -2 40 0 9 3 -1 5 -23 4 -22 0 -30 -2 -17 -4z"/>
<path d="M4874 7552 c3 -5 0 -13 -6 -15 -9 -4 -10 -6 -1 -6 17 -1 25 16 12 25
-7 4 -9 3 -5 -4z"/>
<path d="M4918 7553 c7 -3 16 -2 19 1 4 3 -2 6 -13 5 -11 0 -14 -3 -6 -6z"/>
<path d="M5520 7536 c0 -3 9 -10 20 -16 11 -6 20 -8 20 -6 0 3 -9 10 -20 16
-11 6 -20 8 -20 6z"/>
<path d="M4908 7523 c7 -3 16 -2 19 1 4 3 -2 6 -13 5 -11 0 -14 -3 -6 -6z"/>
<path d="M4950 7510 c8 -5 22 -9 30 -9 10 0 8 3 -5 9 -27 12 -43 12 -25 0z"/>
<path d="M4690 7210 c-13 -8 -13 -10 2 -10 9 0 20 5 23 10 8 13 -5 13 -25 0z"/>
<path d="M3083 7160 c0 -17 4 -26 8 -19 5 9 8 8 12 -2 2 -8 2 -3 0 11 -7 38
-20 45 -20 10z"/>
<path d="M3055 7160 c3 -5 8 -10 11 -10 2 0 4 5 4 10 0 6 -5 10 -11 10 -5 0
-7 -4 -4 -10z"/>
<path d="M4871 7146 c2 -2 15 -9 29 -15 24 -11 24 -11 6 3 -16 13 -49 24 -35
12z"/>
<path d="M3166 7105 c-9 -26 -7 -32 5 -12 6 10 9 21 6 23 -2 3 -7 -2 -11 -11z"/>
<path d="M4560 7105 c0 -8 5 -15 10 -15 6 0 10 7 10 15 0 8 -4 15 -10 15 -5 0
-10 -7 -10 -15z"/>
<path d="M4930 7113 c0 -5 13 -19 29 -31 22 -16 29 -18 27 -6 -1 8 -5 13 -8
12 -3 -2 -15 6 -27 16 -12 11 -21 15 -21 9z"/>
<path d="M4391 7101 c-9 -6 -10 -11 -2 -15 6 -4 8 -13 5 -19 -4 -7 -4 -9 1 -5
4 4 25 -2 47 -13 22 -11 43 -18 46 -15 3 3 0 6 -7 6 -7 0 -9 4 -6 10 3 5 0 7
-8 4 -8 -3 -18 -1 -22 5 -3 6 1 11 9 11 29 0 24 15 -6 16 -17 1 -33 6 -37 12
-4 6 -12 7 -20 3z m40 -29 c-7 -2 -18 1 -23 6 -8 8 -4 9 13 5 13 -4 18 -8 10
-11z"/>
<path d="M5037 7048 c7 -8 10 -18 6 -22 -4 -4 1 -4 11 0 15 6 17 4 11 -6 -5
-9 -4 -11 3 -6 16 10 16 11 -15 32 -20 13 -25 13 -16 2z"/>
<path d="M2862 7020 c0 -14 2 -19 5 -12 2 6 2 18 0 25 -3 6 -5 1 -5 -13z"/>
<path d="M4511 7031 c-9 -6 0 -13 33 -24 26 -9 44 -12 41 -6 -4 5 -14 9 -23 9
-13 0 -14 2 -4 9 11 7 10 10 -3 15 -21 8 -27 8 -44 -3z m36 -7 c-3 -3 -12 -4
-19 -1 -8 3 -5 6 6 6 11 1 17 -2 13 -5z"/>
<path d="M2825 7009 c-4 -6 -5 -12 -2 -15 2 -3 7 2 10 11 7 17 1 20 -8 4z"/>
<path d="M4598 7013 c7 -3 16 -2 19 1 4 3 -2 6 -13 5 -11 0 -14 -3 -6 -6z"/>
<path d="M5043 6983 c0 -8 5 -9 19 -2 10 5 24 7 31 3 7 -4 8 -3 4 2 -13 14
-54 12 -54 -3z"/>
<path d="M2836 6974 c-5 -14 -4 -15 9 -4 17 14 19 20 6 20 -5 0 -12 -7 -15
-16z"/>
<path d="M4782 6951 c-11 -7 -11 -9 0 -14 9 -3 15 1 15 9 0 8 -1 14 -1 14 -1
0 -7 -4 -14 -9z"/>
<path d="M4687 6939 c7 -7 15 -10 18 -7 3 3 -2 9 -12 12 -14 6 -15 5 -6 -5z"/>
<path d="M4767 6919 c7 -7 15 -10 18 -7 3 3 -2 9 -12 12 -14 6 -15 5 -6 -5z"/>
<path d="M2852 6834 c-12 -18 -22 -37 -22 -41 0 -4 12 10 26 30 14 21 24 40
22 42 -2 2 -13 -12 -26 -31z"/>
<path d="M4811 6867 c17 -14 79 -48 79 -44 0 7 -65 47 -75 47 -5 0 -6 -1 -4
-3z"/>
<path d="M5284 6858 c-4 -7 -3 -10 1 -5 11 10 56 -33 48 -46 -4 -6 -1 -7 6 -2
9 5 5 15 -15 36 -32 33 -31 33 -40 17z"/>
<path d="M2572 6800 c-18 -29 -15 -38 4 -12 9 13 14 25 12 27 -2 2 -9 -5 -16
-15z"/>
<path d="M3040 6790 c0 -5 5 -10 10 -10 6 0 10 5 10 10 0 6 -4 10 -10 10 -5 0
-10 -4 -10 -10z"/>
<path d="M2536 6723 c-6 -14 -5 -15 5 -6 7 7 10 15 7 18 -3 3 -9 -2 -12 -12z"/>
<path d="M3090 6705 c0 -8 4 -15 10 -15 5 0 7 7 4 15 -4 8 -8 15 -10 15 -2 0
-4 -7 -4 -15z"/>
<path d="M3061 6693 c-1 -12 4 -25 9 -28 12 -7 12 2 0 30 -8 19 -9 19 -9 -2z"/>
<path d="M5095 6701 c-3 -5 -2 -12 3 -15 5 -3 9 1 9 9 0 17 -3 19 -12 6z"/>
<path d="M2516 6685 c-9 -26 -7 -32 5 -12 6 10 9 21 6 23 -2 3 -7 -2 -11 -11z"/>
<path d="M2765 6689 c-4 -6 -5 -12 -2 -15 2 -3 7 2 10 11 7 17 1 20 -8 4z"/>
<path d="M2490 6626 c-15 -42 -11 -55 6 -17 8 19 12 36 9 39 -2 3 -9 -7 -15
-22z"/>
<path d="M2703 6612 c-1 -22 0 -24 9 -8 6 10 6 22 2 26 -5 5 -10 -3 -11 -18z"/>
<path d="M2981 6624 c0 -11 3 -14 6 -6 3 7 2 16 -1 19 -3 4 -6 -2 -5 -13z"/>
<path d="M2963 6571 c0 -11 5 -18 9 -15 4 3 5 11 1 19 -7 21 -12 19 -10 -4z"/>
<path d="M2660 6555 c-7 -9 -11 -17 -9 -20 3 -2 10 5 17 15 14 24 10 26 -8 5z"/>
<path d="M2920 6540 c0 -11 5 -20 10 -20 6 0 10 9 10 20 0 11 -4 20 -10 20 -5
0 -10 -9 -10 -20z"/>
<path d="M2962 6514 c-2 -31 -28 -60 -36 -41 -3 6 -3 1 0 -12 5 -20 3 -23 -11
-17 -13 4 -16 2 -11 -9 3 -8 1 -15 -4 -15 -5 0 -6 -7 -3 -17 4 -11 3 -14 -5
-9 -7 4 -22 0 -34 -8 -12 -9 -17 -16 -11 -16 7 0 15 5 18 10 4 6 11 8 16 4 6
-4 1 -16 -12 -30 -16 -17 -18 -24 -8 -24 8 0 30 28 49 62 19 34 46 74 59 90
21 25 22 31 10 44 -13 12 -15 11 -17 -12z"/>
<path d="M2685 6490 c-3 -5 -1 -10 4 -10 6 0 11 5 11 10 0 6 -2 10 -4 10 -3 0
-8 -4 -11 -10z"/>
<path d="M2593 6408 c-15 -20 -25 -38 -20 -38 3 0 12 11 21 25 17 26 16 35 -1
13z"/>
<path d="M2421 6384 c0 -11 3 -14 6 -6 3 7 2 16 -1 19 -3 4 -6 -2 -5 -13z"/>
<path d="M2830 6306 c-5 -5 -10 -19 -10 -30 0 -17 -2 -18 -10 -6 -11 17 -13
10 -4 -14 3 -9 10 -13 15 -10 5 3 6 -2 3 -10 -3 -9 -10 -13 -15 -10 -5 3 -6
-2 -3 -10 3 -8 -4 -36 -16 -63 -13 -26 -24 -66 -27 -88 -2 -22 -9 -45 -14 -51
-5 -6 -6 -13 -3 -16 3 -4 -1 -28 -8 -55 -10 -35 -14 -112 -14 -285 1 -233 1
-236 -17 -202 -22 42 -32 43 -53 2 -9 -18 -28 -46 -43 -62 -17 -19 -22 -30
-13 -33 6 -3 12 -20 12 -39 0 -19 5 -34 11 -34 7 0 8 11 4 30 -5 22 -3 32 9
36 9 3 13 10 10 15 -3 5 0 9 6 9 6 0 10 -6 9 -12 0 -7 2 -24 6 -37 8 -23 9
-23 22 -6 7 11 13 14 13 8 0 -7 -7 -19 -16 -28 -9 -9 -14 -18 -11 -21 9 -9
-14 -64 -24 -58 -5 3 -9 -1 -9 -9 0 -8 -18 -33 -41 -57 -22 -23 -31 -37 -20
-31 27 15 31 14 24 -4 -3 -9 -8 -13 -11 -11 -8 8 -33 -15 -27 -24 7 -11 -52
-69 -61 -61 -4 3 -4 1 0 -6 4 -8 -5 -18 -24 -28 -16 -8 -30 -19 -30 -23 0 -4
-14 -13 -31 -21 -23 -10 -28 -16 -18 -22 14 -9 9 -11 -25 -13 -11 -1 -21 -8
-23 -16 -4 -13 -3 -13 6 0 5 8 14 11 18 6 4 -4 -1 -14 -11 -22 -11 -8 -17 -14
-13 -14 4 0 3 -9 -3 -20 -6 -12 -16 -18 -23 -14 -7 4 -9 4 -5 -1 4 -4 1 -17
-7 -29 -8 -11 -16 -30 -16 -41 -1 -17 -2 -17 -6 -3 -4 14 -8 16 -24 8 -10 -6
-19 -19 -19 -29 0 -10 -7 -24 -15 -31 -8 -7 -15 -9 -15 -4 0 4 -13 -5 -30 -21
-23 -22 -30 -25 -30 -12 0 9 -4 17 -8 17 -14 0 -47 -40 -47 -58 0 -24 -22 -25
-28 -1 -3 12 -10 18 -17 14 -8 -5 -8 -11 1 -21 20 -24 0 -29 -24 -6 -13 12
-27 19 -30 15 -4 -3 -7 2 -7 13 0 10 -5 26 -10 34 -12 19 -2 -54 13 -90 6 -14
11 -31 13 -38 4 -20 65 -112 74 -112 5 0 16 10 24 22 9 12 18 19 21 17 2 -3
-5 -16 -16 -28 -20 -21 -20 -23 -4 -41 10 -11 22 -17 28 -13 5 3 7 1 4 -4 -11
-17 20 -35 45 -28 16 4 19 3 9 -3 -7 -5 -11 -14 -7 -20 3 -6 3 -12 -2 -14 -24
-10 -51 -71 -62 -140 -14 -87 -4 -166 32 -250 24 -57 89 -120 115 -112 14 5
15 4 4 -4 -10 -7 -10 -11 -1 -17 11 -7 7 -74 -8 -130 -40 -153 74 -412 240
-544 185 -148 457 -221 720 -192 62 7 182 28 267 47 179 41 173 43 217 -64 35
-84 39 -206 10 -292 -36 -105 -147 -246 -281 -356 -33 -27 -65 -54 -72 -61
-48 -44 -455 -303 -566 -359 -26 -14 -45 -29 -42 -34 3 -5 0 -7 -8 -5 -21 9
-67 -33 -67 -60 0 -27 91 -167 123 -190 38 -27 68 -17 206 68 75 46 165 101
201 123 453 270 701 537 781 839 26 97 28 256 6 360 -17 81 -77 211 -94 208
-7 -2 -10 3 -7 11 7 17 -58 73 -115 100 -73 33 -227 29 -401 -12 -178 -42
-269 -49 -389 -28 -100 18 -220 66 -274 112 -68 57 -137 178 -137 238 0 6 20
19 45 30 64 26 92 83 87 179 -2 33 -46 81 -68 73 -8 -3 -12 -2 -9 3 3 5 -21
15 -52 21 -32 7 -64 14 -70 16 -22 6 -14 23 17 39 17 9 30 13 30 9 0 -8 63 45
73 62 17 30 -57 63 -139 64 -30 0 -32 2 -43 57 -16 84 -15 91 22 107 51 21 77
60 77 116 0 65 -39 118 -125 165 -36 21 -73 48 -82 61 -8 13 -20 21 -26 17 -5
-3 -7 -2 -4 4 3 5 -1 29 -9 53 -30 87 5 152 171 315 101 99 130 135 169 206
73 136 78 159 82 374 7 381 24 490 112 711 16 40 18 51 7 51 -8 0 -19 -5 -25
-11z m11 -23 c-12 -20 -14 -14 -5 12 4 9 9 14 11 11 3 -2 0 -13 -6 -23z m-201
-883 c0 -5 -5 -10 -11 -10 -5 0 -7 5 -4 10 3 6 8 10 11 10 2 0 4 -4 4 -10z
m-2 -225 c-11 -20 -23 -34 -25 -31 -5 5 35 66 42 66 3 0 -5 -16 -17 -35z m-48
-75 c0 -5 -5 -10 -11 -10 -5 0 -7 5 -4 10 3 6 8 10 11 10 2 0 4 -4 4 -10z
m-314 -379 c0 -22 -4 -34 -8 -28 -13 21 -8 67 7 67 2 0 2 -18 1 -39z m-29 -43
c-3 -8 -6 -5 -6 6 -1 11 2 17 5 13 3 -3 4 -12 1 -19z m-207 -87 c15 -30 12
-33 -10 -11 -22 22 -25 30 -10 30 5 0 14 -9 20 -19z m20 -51 c-6 -11 -13 -20
-16 -20 -2 0 0 9 6 20 6 11 13 20 16 20 2 0 0 -9 -6 -20z m446 -246 c2 -12 -1
-13 -12 -3 -7 6 -11 16 -8 21 7 11 17 3 20 -18z m-282 -382 c3 -5 -1 -9 -9 -9
-8 0 -12 4 -9 9 3 4 7 8 9 8 2 0 6 -4 9 -8z m437 -265 c-10 -9 -11 -8 -5 6 3
10 9 15 12 12 3 -3 0 -11 -7 -18z"/>
<path d="M2741 6104 c0 -11 3 -14 6 -6 3 7 2 16 -1 19 -3 4 -6 -2 -5 -13z"/>
<path d="M4640 6024 c0 -8 5 -12 10 -9 6 4 8 11 5 16 -9 14 -15 11 -15 -7z"/>
<path d="M2725 5980 c-3 -5 -1 -10 4 -10 6 0 11 5 11 10 0 6 -2 10 -4 10 -3 0
-8 -4 -11 -10z"/>
<path d="M4526 5982 c-3 -6 -1 -14 5 -17 15 -10 25 3 12 16 -7 7 -13 7 -17 1z"/>
<path d="M4750 5950 c0 -5 -7 -10 -16 -10 -8 0 -12 -4 -9 -10 9 -15 19 -12 33
10 7 12 8 20 2 20 -5 0 -10 -4 -10 -10z"/>
<path d="M4840 5923 c0 -13 47 -53 53 -46 4 3 -5 17 -19 30 -26 24 -34 28 -34
16z"/>
<path d="M4823 5875 c11 -23 27 -34 27 -17 -1 9 -26 42 -33 42 -3 0 0 -11 6
-25z"/>
<path d="M4890 5854 c-16 -10 -18 -13 -5 -8 11 4 28 7 37 8 9 0 14 4 12 8 -7
11 -15 10 -44 -8z"/>
<path d="M4970 5827 c0 -3 12 -12 26 -22 15 -9 23 -12 20 -6 -7 11 -46 35 -46
28z"/>
<path d="M2422 5755 c0 -16 2 -22 5 -12 2 9 2 23 0 30 -3 6 -5 -1 -5 -18z"/>
<path d="M4533 5745 c-9 -10 -8 -17 8 -31 10 -9 22 -14 26 -11 3 4 1 7 -6 7
-7 0 -9 4 -6 10 3 5 2 16 -2 24 -7 11 -10 12 -20 1z"/>
<path d="M4580 5740 c0 -5 5 -10 10 -10 6 0 10 5 10 10 0 6 -4 10 -10 10 -5 0
-10 -4 -10 -10z"/>
<path d="M5100 5736 c0 -2 7 -7 16 -10 8 -3 12 -2 9 4 -6 10 -25 14 -25 6z"/>
<path d="M2670 5670 c0 -5 5 -10 10 -10 6 0 10 5 10 10 0 6 -4 10 -10 10 -5 0
-10 -4 -10 -10z"/>
<path d="M4606 5638 c3 -5 10 -6 15 -3 13 9 11 12 -6 12 -8 0 -12 -4 -9 -9z"/>
<path d="M5300 5630 c8 -5 20 -10 25 -10 6 0 3 5 -5 10 -8 5 -19 10 -25 10 -5
0 -3 -5 5 -10z"/>
<path d="M4650 5599 c0 -3 13 -17 28 -32 26 -25 28 -25 29 -7 1 11 -2 22 -8
25 -5 4 -6 -2 -2 -12 5 -14 1 -13 -20 6 -15 14 -27 22 -27 20z"/>
<path d="M4780 5505 c-7 -9 -8 -15 -2 -15 5 0 12 7 16 15 3 8 4 15 2 15 -2 0
-9 -7 -16 -15z"/>
<path d="M4730 5506 c0 -2 8 -10 18 -17 15 -13 16 -12 3 4 -13 16 -21 21 -21
13z"/>
<path d="M4780 5456 c0 -2 8 -10 18 -17 15 -13 16 -12 3 4 -13 16 -21 21 -21
13z"/>
<path d="M4820 5427 c0 -2 15 -16 33 -33 l32 -29 -29 33 c-28 30 -36 37 -36
29z"/>
<path d="M4910 5346 c0 -2 8 -10 18 -17 15 -13 16 -12 3 4 -13 16 -21 21 -21
13z"/>
<path d="M2646 5309 c4 -13 7 -33 6 -44 -1 -14 1 -16 7 -7 10 16 2 60 -11 68
-6 4 -7 -2 -2 -17z"/>
<path d="M2588 5268 c18 -18 52 -20 52 -3 0 10 -10 15 -32 15 -25 0 -29 -3
-20 -12z"/>
<path d="M5500 5270 c34 -11 60 -11 35 0 -11 5 -29 8 -40 8 -16 0 -15 -2 5 -8z"/>
<path d="M2590 5180 c-6 -11 -8 -20 -6 -20 3 0 10 9 16 20 6 11 8 20 6 20 -3
0 -10 -9 -16 -20z"/>
<path d="M5417 5029 c4 -13 8 -18 11 -10 2 7 -1 18 -6 23 -8 8 -9 4 -5 -13z"/>
<path d="M2345 4951 c3 -2 0 -10 -6 -18 -9 -9 -8 -13 0 -13 6 0 11 5 11 10 0
6 7 10 15 10 8 0 15 4 15 8 0 4 -9 8 -20 8 -10 0 -17 -2 -15 -5z"/>
<path d="M2280 4895 c0 -10 9 -14 25 -13 14 1 25 8 25 15 0 7 -11 13 -25 13
-15 0 -25 -6 -25 -15z"/>
<path d="M2056 4824 c-4 -20 -5 -38 -2 -41 2 -3 8 11 12 31 3 21 4 39 1 42 -2
3 -8 -11 -11 -32z"/>
<path d="M2031 4834 c0 -11 3 -14 6 -6 3 7 2 16 -1 19 -3 4 -6 -2 -5 -13z"/>
<path d="M2140 4810 c0 -5 5 -10 10 -10 6 0 10 5 10 10 0 6 -4 10 -10 10 -5 0
-10 -4 -10 -10z"/>
<path d="M2011 4754 c0 -11 3 -14 6 -6 3 7 2 16 -1 19 -3 4 -6 -2 -5 -13z"/>
<path d="M2032 4745 c-6 -14 -7 -25 -2 -25 9 0 25 39 18 46 -3 2 -10 -7 -16
-21z"/>
<path d="M2221 4736 c-8 -10 -9 -16 -1 -21 5 -3 13 1 16 10 9 22 -1 29 -15 11z"/>
<path d="M2060 4708 c0 -21 5 -38 10 -38 13 0 13 40 0 60 -7 11 -10 5 -10 -22z"/>
<path d="M5485 4130 c-3 -5 -1 -10 4 -10 6 0 11 5 11 10 0 6 -2 10 -4 10 -3 0
-8 -4 -11 -10z"/>
<path d="M5470 3480 c-6 -11 -8 -20 -6 -20 3 0 10 9 16 20 6 11 8 20 6 20 -3
0 -10 -9 -16 -20z"/>
<path d="M5303 3400 c0 -25 2 -35 4 -22 2 12 2 32 0 45 -2 12 -4 2 -4 -23z"/>
<path d="M5343 3405 c0 -22 2 -30 4 -17 2 12 2 30 0 40 -3 9 -5 -1 -4 -23z"/>
<path d="M5426 3401 c-4 -7 -5 -15 -2 -18 9 -9 19 4 14 18 -4 11 -6 11 -12 0z"/>
<path d="M5399 3323 c3 -39 5 -44 11 -23 6 21 9 16 15 -28 11 -74 17 -58 9 22
-4 43 -10 63 -15 54 -7 -10 -9 -9 -9 5 0 9 -3 17 -8 17 -4 0 -5 -21 -3 -47z"/>
<path d="M5368 3331 c2 -16 -1 -32 -7 -35 -6 -4 -11 -17 -11 -29 1 -18 4 -15
15 12 16 36 20 81 7 81 -5 0 -7 -13 -4 -29z"/>
<path d="M5101 3204 c0 -11 3 -14 6 -6 3 7 2 16 -1 19 -3 4 -6 -2 -5 -13z"/>
<path d="M5445 3190 c-3 -5 -1 -10 4 -10 6 0 11 5 11 10 0 6 -2 10 -4 10 -3 0
-8 -4 -11 -10z"/>
<path d="M5351 3154 c0 -11 3 -14 6 -6 3 7 2 16 -1 19 -3 4 -6 -2 -5 -13z"/>
<path d="M5451 3144 c0 -11 3 -14 6 -6 3 7 2 16 -1 19 -3 4 -6 -2 -5 -13z"/>
<path d="M5385 3099 c-4 -11 -4 -23 -1 -26 3 -4 6 1 6 10 0 10 5 17 10 17 6 0
10 5 10 10 0 18 -19 10 -25 -11z"/>
<path d="M5140 3085 c0 -5 5 -17 10 -25 5 -8 10 -10 10 -5 0 6 -5 17 -10 25
-5 8 -10 11 -10 5z"/>
<path d="M5441 3074 c0 -11 3 -14 6 -6 3 7 2 16 -1 19 -3 4 -6 -2 -5 -13z"/>
<path d="M5415 3010 c3 -5 8 -10 11 -10 2 0 4 5 4 10 0 6 -5 10 -11 10 -5 0
-7 -4 -4 -10z"/>
<path d="M5606 2972 c-2 -4 4 -8 14 -8 10 0 16 4 14 8 -3 4 -9 8 -14 8 -5 0
-11 -4 -14 -8z"/>
<path d="M5642 2934 c-14 -16 -5 -18 17 -5 7 5 9 11 5 14 -5 3 -15 -1 -22 -9z"/>
<path d="M5450 2546 c0 -2 8 -10 18 -17 15 -13 16 -12 3 4 -13 16 -21 21 -21
13z"/>
<path d="M27 103 c-25 -4 -27 -8 -27 -54 0 -48 1 -49 30 -49 30 0 30 1 30 55
0 30 -1 54 -2 54 -2 -1 -15 -4 -31 -6z"/>
</g>
</svg>
