<svg width="24" height="24" viewBox="0 0 24 24" fill="none" xmlns="http://www.w3.org/2000/svg">
<path d="M4.8 2.3999C4.58783 2.3999 4.38435 2.48419 4.23432 2.63422C4.08429 2.78425 4 2.98773 4 3.1999C4 3.20094 4 3.20199 4 3.20303V11.9999V20.7968C4 20.7978 4 20.7989 4 20.7999C4 21.0121 4.08429 21.2156 4.23432 21.3656C4.38435 21.5156 4.58783 21.5999 4.8 21.5999C4.96653 21.5994 5.12876 21.547 5.26406 21.4499L5.26563 21.4515L21.1328 12.7265C21.2721 12.6628 21.3901 12.5604 21.4729 12.4317C21.5557 12.3029 21.5998 12.153 21.6 11.9999C21.6001 11.8425 21.5537 11.6886 21.4667 11.5574C21.3797 11.4262 21.256 11.3236 21.1109 11.2624L5.26563 2.54834H5.26406C5.12857 2.45181 4.96636 2.39993 4.8 2.3999Z" fill="black"/>
</svg>
